<?xml version="1.0" standalone="no"?>
<!DOCTYPE svg PUBLIC "-//W3C//DTD SVG 20010904//EN"
 "http://www.w3.org/TR/2001/REC-SVG-20010904/DTD/svg10.dtd">
<svg version="1.0" xmlns="http://www.w3.org/2000/svg"
 width="300.000000pt" height="300.000000pt" viewBox="0 0 300.000000 300.000000"
 preserveAspectRatio="xMidYMid meet">
<metadata>
Created by potrace 1.10, written by Peter Selinger 2001-2011
</metadata>
<g transform="translate(0.000000,300.000000) scale(0.100000,-0.100000)"
fill="#000000" stroke="none">
<path d="M203 2982 c-100 -35 -171 -115 -193 -216 -8 -36 -10 -416 -8 -1296
l3 -1245 28 -57 c32 -64 80 -111 146 -142 l46 -21 1275 0 1275 0 57 28 c64 32
111 80 142 146 l21 46 0 1275 0 1275 -21 46 c-31 66 -78 114 -142 146 l-57 28
-1260 2 c-1189 2 -1263 1 -1312 -15z m1297 -1232 l0 -720 310 0 310 0 0 -250
0 -250 -617 2 -618 3 -3 955 c-1 525 0 961 3 968 3 9 75 12 310 12 l305 0 0
-720z"/>
</g>
</svg>
